<svg width="13" height="13" viewBox="0 0 13 13" fill="none" xmlns="http://www.w3.org/2000/svg">
<path d="M2.36308 0.00632906C2.24485 0.0321856 2.14605 0.159853 2.14605 0.284288C2.14605 0.336001 2.16711 0.36509 2.35499 0.567095C2.46998 0.689915 2.92511 1.1521 3.36727 1.5949C3.80944 2.03769 4.17063 2.40453 4.17063 2.411C4.17063 2.41746 3.77381 2.81824 3.28791 3.30305L2.40682 4.18218L1.50304 3.28528C1.00581 2.79238 0.539347 2.33666 0.464843 2.27202C0.346607 2.16859 0.323932 2.15566 0.267244 2.15566C0.183022 2.15566 0.085842 2.20576 0.0372522 2.27202C0.0080983 2.31404 0 2.34636 0 2.42393C0 2.51443 0.00485898 2.52897 0.0631668 2.59846C0.0987993 2.64209 0.550685 3.10105 1.06736 3.62141C1.58565 4.14178 2.01 4.57326 2.01324 4.57973C2.01648 4.58619 1.99542 4.62659 1.96951 4.66861C1.88205 4.80436 1.86261 4.89001 1.86261 5.11302C1.86261 5.30533 1.86585 5.31987 1.91282 5.42007C1.97275 5.54774 2.16711 5.7659 2.64653 6.24586C3.10651 6.70644 3.20207 6.76461 3.51142 6.76461C3.77381 6.76623 3.88071 6.71613 4.16091 6.4608L4.3083 6.32667L4.85898 6.87127C5.16186 7.17186 5.49551 7.4983 5.59917 7.59688C5.77409 7.76171 5.79676 7.77787 5.87775 7.79565C6.00246 7.82151 6.04295 7.79888 6.26971 7.58395C6.61955 7.25104 7.68853 6.17314 7.75331 6.08911C7.80514 6.02124 7.81486 5.99376 7.81486 5.93074C7.81486 5.8871 7.8019 5.82731 7.78733 5.79499C7.77113 5.76105 7.45854 5.433 7.04714 5.02091L6.33611 4.30338L6.40738 4.22905C6.44625 4.18703 6.48674 4.14501 6.49646 4.13531C6.54181 4.09168 6.66328 3.93493 6.69568 3.87836C6.75074 3.78302 6.77828 3.6505 6.77828 3.4889C6.77828 3.31113 6.74751 3.19801 6.66814 3.07842C6.58392 2.95237 5.8405 2.19445 5.63642 2.028C5.47445 1.89548 5.29629 1.84054 5.05982 1.85185C4.92863 1.85831 4.88652 1.86801 4.79581 1.91003C4.73589 1.9375 4.66462 1.97628 4.63871 1.99568C4.60146 2.02153 4.58526 2.02477 4.56906 2.01022C4.5561 2.00052 4.24513 1.69348 3.87585 1.32663C3.07088 0.525078 2.5947 0.0628905 2.54611 0.0321856C2.49914 0.00309706 2.42463 -0.00821543 2.36308 0.00632906ZM5.19911 3.25942C5.31573 3.30467 5.36917 3.38386 5.36917 3.50991C5.36917 3.58424 5.3627 3.59717 5.26552 3.70868C5.10355 3.89776 3.66691 5.31664 3.6086 5.34573C3.53896 5.38128 3.46607 5.37805 3.38347 5.33765C3.30411 5.30048 3.2539 5.22937 3.23932 5.13564C3.2296 5.07747 3.23446 5.06292 3.29601 4.98374C3.38671 4.86738 4.90271 3.35477 4.99503 3.28851C5.06954 3.23518 5.11813 3.22872 5.19911 3.25942Z" fill="white"/>
<path d="M7.74654 2.70022C7.72386 2.70345 7.67042 2.73577 7.62992 2.77133L7.55542 2.83758V3.23028V3.62298L7.62992 3.68924C7.67204 3.72641 7.72872 3.75873 7.7595 3.76519C7.88421 3.78782 8.01216 3.72479 8.05913 3.61813C8.12392 3.47269 8.1142 2.89576 8.04456 2.80365C7.98625 2.72608 7.86478 2.68406 7.74654 2.70022Z" fill="white"/>
<path d="M9.32096 3.25773C9.23673 3.29975 8.89175 3.6375 8.74274 3.82334C8.68929 3.89122 8.63908 3.96879 8.6326 3.99626C8.60669 4.11746 8.71196 4.26775 8.85125 4.30492C8.90956 4.32108 8.92738 4.31785 8.98569 4.29038C9.12498 4.2225 9.5801 3.78779 9.66756 3.63911C9.74531 3.50498 9.72101 3.3854 9.59306 3.28197C9.51208 3.21733 9.41814 3.20925 9.32096 3.25773Z" fill="white"/>
<path d="M9.44114 4.8544C9.37312 4.85925 9.30671 4.87703 9.2808 4.89319C9.19658 4.94813 9.14637 5.14044 9.19334 5.23094C9.20305 5.25033 9.23707 5.29396 9.26946 5.32629L9.32777 5.3877H9.71001H10.0922L10.1506 5.32629C10.2283 5.24548 10.2445 5.20993 10.2445 5.12105C10.2445 5.03217 10.2153 4.95621 10.1587 4.90612C10.1263 4.87541 10.0906 4.86571 9.96753 4.8544C9.79909 4.83824 9.61607 4.83824 9.44114 4.8544Z" fill="white"/>
<path d="M8.85927 6.00826C8.66977 6.05351 8.66167 6.06159 7.43235 7.28655C6.78935 7.9265 6.21761 8.50828 6.16254 8.57938C6.00705 8.77654 5.98438 8.83471 5.98438 9.04318C5.98438 9.24519 6.02001 9.36154 6.12691 9.51992C6.20789 9.6395 6.20303 9.63466 6.51886 9.84312C6.77153 10.0096 6.85413 10.0645 7.13919 10.2471C7.20236 10.2875 7.29306 10.3457 7.33679 10.3748C7.44531 10.4443 8.08022 10.8451 8.42196 11.0584L8.69731 11.2297L9.40186 11.9262C9.78896 12.3076 10.1777 12.689 10.2651 12.7698C10.4255 12.9217 10.4401 12.9298 10.5599 12.9201C10.7219 12.9055 10.8385 12.7164 10.7705 12.5742C10.7365 12.5031 10.4757 12.2268 9.82459 11.5723C9.54277 11.2895 9.31116 11.0535 9.30792 11.0471C9.3063 11.0406 9.7015 10.6398 10.1874 10.155L11.0685 9.27589L11.705 9.90615C12.591 10.782 12.6169 10.8031 12.7335 10.7707C12.8631 10.7352 12.9489 10.6237 12.9489 10.4895C12.9489 10.3893 12.9295 10.3667 12.1116 9.54093C11.7374 9.16277 11.3892 8.80724 11.339 8.74906C11.1381 8.52444 10.9859 8.30465 10.5356 7.58552C9.90719 6.58034 9.69664 6.26359 9.6027 6.18118C9.42129 6.0228 9.10546 5.94847 8.85927 6.00826ZM9.5946 7.60006C9.65453 7.64369 9.71607 7.76974 9.7015 7.82307C9.67396 7.93296 9.55249 8.06386 8.65681 8.95107C8.11099 9.49083 7.98628 9.61041 7.91177 9.6589C7.85994 9.69445 7.7903 9.69283 7.70607 9.65566C7.61699 9.61365 7.57164 9.52961 7.57164 9.39871V9.30498L8.40253 8.4808C8.85765 8.02669 9.26419 7.63076 9.30468 7.60168C9.37109 7.55481 9.38404 7.55158 9.46503 7.55966C9.512 7.56612 9.57192 7.5839 9.5946 7.60006Z" fill="white"/>
<path d="M2.79065 7.59671C2.75826 7.63065 2.72425 7.6759 2.71291 7.69691C2.65784 7.80518 2.71777 7.98941 2.82791 8.04274C2.90241 8.07829 3.32838 8.09769 3.50169 8.07345C3.67985 8.04759 3.76407 7.96355 3.76569 7.8068C3.76569 7.71468 3.74949 7.67913 3.67175 7.59671L3.61344 7.53692H3.2312H2.84896L2.79065 7.59671Z" fill="white"/>
<path d="M3.9441 8.63443C3.80804 8.70716 3.28489 9.22429 3.24764 9.32448C3.23792 9.34711 3.23145 9.3972 3.23145 9.43599C3.23145 9.55881 3.3756 9.70264 3.49869 9.70264C3.5246 9.70264 3.58777 9.68001 3.63636 9.65092C3.78861 9.56527 4.27451 9.0546 4.30852 8.94633C4.34091 8.84129 4.26155 8.69908 4.13684 8.63443C4.06071 8.59565 4.01698 8.59726 3.9441 8.63443Z" fill="white"/>
<path d="M5.03205 9.16442C4.97212 9.17573 4.87333 9.28562 4.86037 9.35511C4.84093 9.45369 4.84741 9.96436 4.86685 10.0452C4.87818 10.0872 4.9041 10.1357 4.92515 10.1567C4.96241 10.1922 5.1098 10.2391 5.14705 10.2278C5.15839 10.2245 5.18592 10.2181 5.21183 10.2132C5.23613 10.2068 5.28472 10.1761 5.32035 10.1454L5.38514 10.0872V9.69609V9.30501L5.32521 9.24684C5.23613 9.15957 5.16162 9.14018 5.03205 9.16442Z" fill="white"/>
</svg>
